<svg width="96" height="32" viewBox="0 0 96 32" fill="none" xmlns="http://www.w3.org/2000/svg">
<path d="M57.6623 19.5045C56.5353 18.4369 55.003 17.9031 53.3916 17.908H49.4324V29.0888H53.3916C54.2517 29.0888 55.0574 28.9455 55.779 28.6588C57.1977 28.1002 58.2999 27.0919 58.8832 25.693C59.7482 23.6516 59.3033 21.0171 57.6573 19.5045H57.6623ZM53.3966 27.4774H51.1426V19.5243C52.2301 19.554 54.1627 19.381 55.1365 19.8357C57.2125 20.5722 58.0923 23.1326 57.2817 25.0851C56.6638 26.652 55.087 27.5071 53.4015 27.4774H53.3966Z" fill="#0A0A0A"/>
<path d="M67.8347 24.3386C69.9849 23.4341 70.3705 20.2953 68.5712 18.847C67.7606 18.1798 66.7127 17.9128 65.6055 17.9128H60.7615V29.0937H62.4668V24.9416H65.1458L68.245 29.0937H70.3507L67.0043 24.6451C67.296 24.5709 67.5777 24.4671 67.8397 24.3386H67.8347ZM62.4618 19.5242H65.5165C66.8907 19.5292 67.988 20.0086 68.0078 21.4025C68.0424 22.742 66.7078 23.4093 65.5017 23.3747H62.4618V19.5242Z" fill="#0A0A0A"/>
<path d="M73.3017 17.908H71.5964V29.0888H73.3017V17.908Z" fill="#0A0A0A"/>
<path d="M80.0981 26.7063L76.4651 17.908H74.5769L79.3863 29.1679H80.7802L85.5847 17.908H83.746L80.0981 26.7063Z" fill="#0A0A0A"/>
<path d="M88.1599 27.4922V24.2546H93.9876V22.6531H88.1599V19.5045H94.6746V17.908H86.4546V29.0888H94.7537V27.4922H88.1599Z" fill="#0A0A0A"/>
<path d="M54.0687 2.98535H57.0147L61.7104 14.092H58.4333L57.6276 12.1248H53.3767L52.5908 14.092H49.3779L54.0737 2.98535H54.0687ZM56.7478 9.74227L55.517 6.60848L54.2714 9.74227H56.7428H56.7478Z" fill="#0A0A0A"/>
<path d="M61.3792 8.61034V8.58068C61.3792 5.3678 63.8506 2.84692 67.192 2.84692C69.446 2.84692 70.8942 3.79101 71.8729 5.14536L69.5745 6.92481C68.9467 6.13889 68.2201 5.63471 67.1623 5.63471C65.6201 5.63471 64.5327 6.94458 64.5327 8.55102V8.58068C64.5327 10.2365 65.6201 11.5266 67.1623 11.5266C68.314 11.5266 68.9912 10.9928 69.6536 10.1871L71.952 11.8232C70.914 13.2567 69.5102 14.3144 67.0684 14.3144C63.9198 14.3144 61.3792 11.9023 61.3792 8.61034Z" fill="#0A0A0A"/>
<path d="M72.9407 3.06445H75.9954V7.53776L79.7916 3.06445H83.4147L79.238 7.80468L83.5531 14.092H79.8806L77.1076 9.99438L75.9905 11.24V14.092H72.9358V3.06445H72.9407Z" fill="#0A0A0A"/>
<path d="M82.8809 8.61034V8.58068C82.8809 5.41229 85.4314 2.84692 88.837 2.84692C92.2427 2.84692 94.7586 5.38263 94.7586 8.55102V8.58068C94.7586 11.7491 92.2081 14.3144 88.8024 14.3144C85.3968 14.3144 82.8809 11.7787 82.8809 8.61034ZM91.6397 8.61034V8.58068C91.6397 6.98907 90.488 5.60505 88.8024 5.60505C87.1169 5.60505 86.0147 6.95941 86.0147 8.55102V8.58068C86.0147 10.1723 87.1663 11.5563 88.8321 11.5563C90.4979 11.5563 91.6347 10.2019 91.6347 8.61034H91.6397Z" fill="#0A0A0A"/>
<path d="M41.4765 11.2598V20.7007C41.4765 21.4273 41.1503 22.0502 40.4879 22.4851C32.2234 27.9025 25.9657 30.1763 23.776 30.809C20.7559 31.6838 19.1544 31.5899 18.8974 31.5701C13.3861 31.1698 4.09839 23.5824 4.09839 23.5824C4.09839 23.5824 11.6758 25.436 29.1836 17.0974C32.4656 15.5354 36.1283 13.8499 40.3891 11.8727C40.3891 11.8727 41.3184 11.4724 41.4765 11.2549V11.2598Z" fill="#0D8452"/>
<path d="M41.0366 10.9384C41.086 10.8989 41.1453 10.8445 41.175 10.8099C41.2145 10.7605 41.2491 10.7111 41.2689 10.6517C41.3233 10.4936 41.3085 10.2959 41.2195 10.1525C41.0564 9.8856 40.7895 9.70765 40.4879 9.51488C32.2234 4.09747 25.9657 1.82374 23.776 1.19105C20.7559 0.316158 19.1544 0.410069 18.8974 0.429841C13.3861 0.830215 4.09839 8.41755 4.09839 8.41755C4.09839 8.41755 11.6758 6.56397 29.1836 14.9026C29.747 15.1695 30.3204 15.4414 30.9086 15.7182L40.4731 11.2844C40.4731 11.2844 40.9575 11.0126 41.0416 10.9434L41.0366 10.9384Z" fill="#0DB272"/>
<path d="M12.9709 15.9901C12.9808 13.9734 13.2329 11.9617 13.6975 9.96968L13.7618 9.72254C10.3117 8.9119 7.77101 8.73889 6.24366 8.73889C4.98322 8.73889 4.31593 8.85259 4.08856 8.90202C3.6783 8.99099 3.38667 9.31722 3.17907 9.59402C1.94829 11.2301 1.24146 13.5632 1.24146 15.9901C1.24146 18.422 1.94829 20.7501 3.17907 22.3862C3.38667 22.663 3.6783 22.9892 4.08856 23.0782C4.31593 23.1276 4.98817 23.2413 6.24366 23.2413C7.77101 23.2413 10.3117 23.0683 13.7618 22.2577L13.6975 22.0106C13.2329 20.0186 12.9808 18.0019 12.9709 15.9901Z" fill="#63E08D"/>
</svg>
